<svg width="16" height="16" viewBox="0 0 16 16" fill="none" xmlns="http://www.w3.org/2000/svg">
<path fill-rule="evenodd" clip-rule="evenodd" d="M5.02909 13.3012C5.50509 13.3012 5.89243 13.6878 5.89243 14.1638C5.89243 14.6398 5.50509 15.0272 5.02909 15.0272C4.55309 15.0272 4.16642 14.6398 4.16642 14.1638C4.16642 13.6878 4.55309 13.3012 5.02909 13.3012ZM12.5493 13.3012C13.026 13.3012 13.4133 13.6878 13.4133 14.1638C13.4133 14.6398 13.026 15.0272 12.5493 15.0272C12.0733 15.0272 11.6866 14.6398 11.6866 14.1638C11.6866 13.6878 12.0733 13.3012 12.5493 13.3012ZM2.17856 2.00624L3.56523 2.24624C3.78856 2.28557 3.95856 2.47091 3.97789 2.69757L4.13456 4.56491L4.71713 4.56516C4.81219 4.5652 4.90625 4.56524 4.99931 4.56528L6.06884 4.56579C6.1541 4.56583 6.2384 4.56588 6.32175 4.56592L7.50268 4.56657C7.57687 4.56661 7.65017 4.56665 7.72259 4.5667L8.55015 4.56723C8.61571 4.56727 8.68043 4.56731 8.74433 4.56736L9.47221 4.5679C9.52967 4.56794 9.58636 4.56799 9.64228 4.56803L10.2769 4.56858C10.3268 4.56862 10.376 4.56867 10.4245 4.56871L10.8416 4.56913C10.8859 4.56917 10.9294 4.56922 10.9723 4.56927L11.4554 4.56983C11.493 4.56987 11.5301 4.56992 11.5665 4.56997L11.9743 4.57054C12.006 4.57059 12.037 4.57063 12.0675 4.57068L12.3267 4.57111C12.3538 4.57116 12.3805 4.57121 12.4066 4.57126L12.6953 4.57185C12.7174 4.57189 12.739 4.57194 12.7601 4.57199L12.9378 4.57244C12.9562 4.57249 12.9742 4.57254 12.9917 4.57259L13.1822 4.57319C13.1965 4.57324 13.2104 4.57329 13.2239 4.57334L13.3357 4.57379C13.3471 4.57385 13.3581 4.5739 13.3688 4.57395L13.482 4.57456C13.4902 4.57462 13.4981 4.57467 13.5058 4.57472L13.5675 4.57519C13.5735 4.57524 13.5794 4.57529 13.585 4.57534L13.6294 4.57582C13.6337 4.57587 13.6378 4.57592 13.6417 4.57598L13.6719 4.57645C13.6747 4.57651 13.6774 4.57656 13.6799 4.57661L13.6991 4.5771C13.7008 4.57715 13.7024 4.57721 13.7039 4.57726L13.7178 4.57791C13.7186 4.57797 13.7194 4.57802 13.7202 4.57808C13.7266 4.57868 13.7276 4.57879 13.7286 4.57891C14.0999 4.63291 14.4266 4.82691 14.6492 5.12557C14.8719 5.42357 14.9652 5.79091 14.9119 6.15891L14.2792 10.5309C14.1599 11.3629 13.4372 11.9902 12.5972 11.9902H5.31656C4.43856 11.9902 3.69522 11.3049 3.62389 10.4282L3.01322 3.16557L2.00856 2.99224C1.73589 2.94424 1.55389 2.68624 1.60056 2.41357C1.64856 2.14091 1.91189 1.96357 2.17856 2.00624ZM4.58338 5.56513L4.21856 5.56491L4.62056 10.3462C4.64989 10.7142 4.95056 10.9902 5.31789 10.9902H12.5959C12.9432 10.9902 13.2399 10.7316 13.2892 10.3882L13.9226 6.01557C13.9372 5.91157 13.9112 5.80757 13.8479 5.72357C13.7852 5.63891 13.6932 5.58424 13.5892 5.56957C13.5844 5.56976 13.5729 5.56992 13.555 5.57008L13.4825 5.57049C13.4673 5.57055 13.4507 5.57061 13.4325 5.57067L13.0548 5.57124C13.023 5.57126 12.9898 5.57128 12.9555 5.5713L12.0675 5.57126C12.0179 5.57124 11.9675 5.57122 11.9161 5.5712L10.9027 5.57059C10.8419 5.57054 10.7806 5.5705 10.7186 5.57045L10.1451 5.56999C10.0798 5.56993 10.014 5.56988 9.94777 5.56982L9.34038 5.56929C9.27179 5.56923 9.20287 5.56916 9.13365 5.5691L8.71526 5.56872C8.64507 5.56865 8.57466 5.56859 8.50409 5.56852L7.86562 5.56792C7.79443 5.56786 7.7232 5.56779 7.65197 5.56772L7.22487 5.56733C7.15379 5.56726 7.08279 5.5672 7.01192 5.56713L6.58845 5.56675C6.51822 5.56668 6.4482 5.56662 6.37842 5.56656L5.75808 5.56603C5.69013 5.56597 5.62254 5.56591 5.55537 5.56586L4.77142 5.56526C4.70815 5.56522 4.64546 5.56517 4.58338 5.56513ZM11.5252 7.02911C11.8012 7.02911 12.0252 7.25311 12.0252 7.52911C12.0252 7.80511 11.8012 8.02911 11.5252 8.02911H9.67716C9.40049 8.02911 9.17716 7.80511 9.17716 7.52911C9.17716 7.25311 9.40049 7.02911 9.67716 7.02911H11.5252Z" fill="white"/>
</svg>
