<svg width="22" height="20" viewBox="0 0 22 20" fill="none" xmlns="http://www.w3.org/2000/svg">
<path d="M16.5851 6.25L15.5126 1.9525C15.3906 1.46608 15.1096 1.03438 14.7141 0.725929C14.3187 0.41748 13.8316 0.249971 13.3301 0.25H8.17012C7.66863 0.249971 7.1815 0.41748 6.78609 0.725929C6.39068 1.03438 6.10965 1.46608 5.98762 1.9525L4.91512 6.25H0.370117L3.31762 18.0475C3.43965 18.5339 3.72068 18.9656 4.11609 19.2741C4.5115 19.5825 4.99863 19.75 5.50012 19.75H16.0001C16.5016 19.75 16.9887 19.5825 17.3841 19.2741C17.7796 18.9656 18.0606 18.5339 18.1826 18.0475L21.1301 6.25H16.5851ZM10.0001 13.75V18.25H8.37262L7.52512 13.75H10.0001ZM7.24762 12.25L6.40012 7.75H10.0001V12.25H7.24762ZM11.5001 13.75H13.9751L13.1276 18.25H11.5001V13.75ZM11.5001 12.25V7.75H15.1001L14.2526 12.25H11.5001ZM16.6226 7.75H19.2101L18.0851 12.25H15.7751L16.6226 7.75ZM7.44262 2.32C7.48368 2.15359 7.5805 2.00627 7.71696 1.90256C7.85342 1.79885 8.02129 1.74501 8.19262 1.75H13.3526C13.5239 1.74501 13.6918 1.79885 13.8283 1.90256C13.9647 2.00627 14.0616 2.15359 14.1026 2.32L15.0401 6.25H6.46012L7.44262 2.32ZM4.87762 7.75L5.72512 12.25H3.41512L2.29012 7.75H4.87762ZM4.75012 17.68L3.79012 13.75H6.04012L6.88012 18.25H5.50012C5.32879 18.255 5.16092 18.2012 5.02446 18.0974C4.888 17.9937 4.79118 17.8464 4.75012 17.68ZM16.7051 17.68C16.6659 17.8389 16.5758 17.9807 16.4485 18.0836C16.3212 18.1865 16.1637 18.2449 16.0001 18.25H14.6576L15.4976 13.75H17.7476L16.7051 17.68Z" fill="white"/>
</svg>
