<svg width="14" height="14" viewBox="0 0 14 14" fill="none" xmlns="http://www.w3.org/2000/svg">
<path fill-rule="evenodd" clip-rule="evenodd" d="M6.74967 0.333313C10.4257 0.333313 13.4163 3.32398 13.4163 6.99998C13.4163 10.676 10.4257 13.6666 6.74967 13.6666C3.07367 13.6666 0.0830078 10.676 0.0830078 6.99998C0.0830078 3.32398 3.07367 0.333313 6.74967 0.333313ZM6.74967 1.33331C3.62501 1.33331 1.08301 3.87531 1.08301 6.99998C1.08301 10.1246 3.62501 12.6666 6.74967 12.6666C9.87434 12.6666 12.4163 10.1246 12.4163 6.99998C12.4163 3.87531 9.87434 1.33331 6.74967 1.33331ZM6.52381 3.73025C6.80047 3.73025 7.02381 3.95425 7.02381 4.23025V7.17825L9.29381 8.53158C9.53047 8.67358 9.60847 8.98025 9.46714 9.21758C9.37314 9.37425 9.20714 9.46158 9.03714 9.46158C8.94981 9.46158 8.86181 9.43891 8.78114 9.39158L6.26781 7.89225C6.11714 7.80158 6.02381 7.63825 6.02381 7.46225V4.23025C6.02381 3.95425 6.24781 3.73025 6.52381 3.73025Z" fill="#121212"/>
</svg>
