<svg width="21" height="20" viewBox="0 0 21 20" fill="none" xmlns="http://www.w3.org/2000/svg">
<path fill-rule="evenodd" clip-rule="evenodd" d="M10.75 0C16.264 0 20.75 4.486 20.75 10C20.75 15.514 16.264 20 10.75 20C5.236 20 0.75 15.514 0.75 10C0.75 4.486 5.236 0 10.75 0ZM10.75 1.5C6.063 1.5 2.25 5.313 2.25 10C2.25 14.687 6.063 18.5 10.75 18.5C15.437 18.5 19.25 14.687 19.25 10C19.25 5.313 15.437 1.5 10.75 1.5ZM10.7539 12.7959C11.3069 12.7959 11.7539 13.2429 11.7539 13.7959C11.7539 14.3489 11.3069 14.7959 10.7539 14.7959C10.2009 14.7959 9.7489 14.3489 9.7489 13.7959C9.7489 13.2429 10.1919 12.7959 10.7439 12.7959H10.7539ZM10.7441 5.454C11.1581 5.454 11.4941 5.79 11.4941 6.204V10.623C11.4941 11.037 11.1581 11.373 10.7441 11.373C10.3301 11.373 9.9941 11.037 9.9941 10.623V6.204C9.9941 5.79 10.3301 5.454 10.7441 5.454Z" fill="white"/>
</svg>
