<svg width="14" height="14" viewBox="0 0 14 14" fill="none" xmlns="http://www.w3.org/2000/svg">
<path d="M4.51969 0.667019C4.93969 0.679792 5.34635 0.753125 5.74035 0.887125H5.77969C5.80635 0.899792 5.82635 0.913792 5.83969 0.926459C5.98702 0.973792 6.12635 1.02713 6.25969 1.10046L6.51302 1.21379C6.61302 1.26713 6.73302 1.36646 6.79969 1.40713C6.86635 1.44646 6.93969 1.48713 6.99969 1.53313C7.74035 0.967125 8.63969 0.660459 9.56635 0.667019C9.98702 0.667019 10.407 0.726459 10.8064 0.860459C13.267 1.66046 14.1537 4.36046 13.413 6.72046C12.993 7.92646 12.3064 9.02712 11.407 9.92646C10.1197 11.1731 8.70702 12.2798 7.18635 13.2331L7.01969 13.3338L6.84635 13.2265C5.32035 12.2798 3.89969 11.1731 2.60035 9.91979C1.70702 9.02046 1.01969 7.92646 0.593019 6.72046C-0.160315 4.36046 0.726352 1.66046 3.21369 0.846459C3.40702 0.779792 3.60635 0.733125 3.80635 0.707125H3.88635C4.07369 0.679792 4.25969 0.667019 4.44635 0.667019H4.51969ZM10.4597 2.77379C10.1864 2.67979 9.88635 2.82713 9.78635 3.10713C9.69302 3.38713 9.83969 3.69379 10.1197 3.79312C10.547 3.95312 10.833 4.37379 10.833 4.83979V4.86046C10.8204 5.01312 10.8664 5.16046 10.9597 5.27379C11.053 5.38712 11.193 5.45312 11.3397 5.46712C11.613 5.45979 11.8464 5.24046 11.8664 4.95979V4.88046C11.8864 3.94646 11.3204 3.10046 10.4597 2.77379Z" fill="#D55015"/>
</svg>
