<svg width="22" height="20" viewBox="0 0 22 20" fill="none" xmlns="http://www.w3.org/2000/svg">
<path fill-rule="evenodd" clip-rule="evenodd" d="M10.985 1.039C12.611 0.0109961 14.771 -0.273004 16.637 0.324996C20.696 1.634 21.956 6.059 20.829 9.58C19.09 15.11 11.663 19.235 11.348 19.408C11.236 19.47 11.112 19.501 10.988 19.501C10.864 19.501 10.741 19.471 10.629 19.41C10.316 19.239 2.94296 15.175 1.14596 9.581C1.14496 9.581 1.14496 9.58 1.14496 9.58C0.0169566 6.058 1.27296 1.632 5.32796 0.324996C7.23196 -0.291004 9.30696 -0.0200039 10.985 1.039ZM5.78796 1.753C2.50696 2.811 1.68296 6.34 2.57396 9.123C3.97596 13.485 9.51496 17.012 10.987 17.885C12.464 17.003 18.043 13.437 19.4 9.127C20.291 6.341 19.464 2.812 16.178 1.753C14.586 1.242 12.729 1.553 11.447 2.545C11.179 2.751 10.807 2.755 10.537 2.551C9.17896 1.53 7.40496 1.231 5.78796 1.753ZM15.218 3.7389C16.581 4.1799 17.536 5.3869 17.653 6.8139C17.686 7.2269 17.379 7.5889 16.966 7.6219C16.945 7.6239 16.925 7.6249 16.904 7.6249C16.517 7.6249 16.189 7.3279 16.157 6.9359C16.091 6.1139 15.541 5.4199 14.758 5.1669C14.363 5.0389 14.147 4.6159 14.274 4.2229C14.403 3.8289 14.822 3.6149 15.218 3.7389Z" fill="white"/>
</svg>
