<svg width="25" height="24" viewBox="0 0 25 24" fill="none" xmlns="http://www.w3.org/2000/svg">
<path fill-rule="evenodd" clip-rule="evenodd" d="M12.985 4.03912C14.611 3.01112 16.771 2.72712 18.637 3.32512C22.696 4.63412 23.956 9.05912 22.829 12.5801C21.09 18.1101 13.663 22.2351 13.348 22.4081C13.236 22.4701 13.112 22.5011 12.988 22.5011C12.864 22.5011 12.741 22.4711 12.629 22.4101C12.316 22.2391 4.94296 18.1751 3.14596 12.5811C3.14496 12.5811 3.14496 12.5801 3.14496 12.5801C2.01696 9.05812 3.27296 4.63212 7.32796 3.32512C9.23196 2.70912 11.307 2.98012 12.985 4.03912ZM7.78796 4.75312C4.50696 5.81112 3.68296 9.34012 4.57396 12.1231C5.97596 16.4851 11.515 20.0121 12.987 20.8851C14.464 20.0031 20.043 16.4371 21.4 12.1271C22.291 9.34112 21.464 5.81212 18.178 4.75312C16.586 4.24212 14.729 4.55312 13.447 5.54512C13.179 5.75112 12.807 5.75512 12.537 5.55112C11.179 4.53012 9.40496 4.23112 7.78796 4.75312ZM17.218 6.73902C18.581 7.18002 19.536 8.38702 19.653 9.81402C19.686 10.227 19.379 10.589 18.966 10.622C18.945 10.624 18.925 10.625 18.904 10.625C18.517 10.625 18.189 10.328 18.157 9.93602C18.091 9.11402 17.541 8.42002 16.758 8.16702C16.363 8.03902 16.147 7.61602 16.274 7.22302C16.403 6.82902 16.822 6.61502 17.218 6.73902Z" fill="#D55015"/>
</svg>
