<svg width="13" height="12" viewBox="0 0 13 12" fill="none" xmlns="http://www.w3.org/2000/svg">
<path fill-rule="evenodd" clip-rule="evenodd" d="M7.43168 11.0093C8.60347 9.88403 10.875 7.3795 10.875 4.875C10.875 2.59682 9.0282 0.75 6.75 0.75C4.47182 0.75 2.625 2.59682 2.625 4.875C2.625 7.3795 4.89655 9.88403 6.06832 11.0093C6.45451 11.3802 7.04549 11.3802 7.43168 11.0093ZM6.75 6.5625C7.68198 6.5625 8.4375 5.80698 8.4375 4.875C8.4375 3.94302 7.68198 3.1875 6.75 3.1875C5.81802 3.1875 5.0625 3.94302 5.0625 4.875C5.0625 5.80698 5.81802 6.5625 6.75 6.5625Z" fill="white"/>
</svg>

