<svg width="15" height="14" viewBox="0 0 15 14" fill="none" xmlns="http://www.w3.org/2000/svg">
<path fill-rule="evenodd" clip-rule="evenodd" d="M10.8563 0.333313C13.0763 0.333313 14.7503 2.14465 14.7503 4.54665V9.12531C14.7503 10.3546 14.3157 11.4653 13.5257 12.2533C12.817 12.9593 11.8977 13.3333 10.867 13.3333H4.29832C3.26966 13.3333 2.35099 12.96 1.64166 12.2533C0.851659 11.4653 0.416992 10.3546 0.416992 9.12531V4.54665C0.416992 2.14465 2.09099 0.333313 4.31099 0.333313H10.8563ZM10.8563 1.33331H4.31099C2.63433 1.33331 1.41699 2.68465 1.41699 4.54665V9.12531C1.41699 10.0873 1.74766 10.9466 2.34766 11.5446C2.86499 12.0613 3.54032 12.3333 4.30032 12.3333H10.8563C10.8577 12.332 10.863 12.3333 10.867 12.3333C11.6277 12.3333 12.3023 12.0613 12.8197 11.5446C13.4203 10.9466 13.7503 10.0873 13.7503 9.12531V4.54665C13.7503 2.68465 12.533 1.33331 10.8563 1.33331ZM11.907 4.41918C12.081 4.63318 12.0483 4.94785 11.8343 5.12251L8.87166 7.53051C8.49699 7.82785 8.04899 7.97651 7.60166 7.97651C7.15566 7.97651 6.71099 7.82918 6.33899 7.53451L3.34899 5.12385C3.13366 4.95051 3.10032 4.63518 3.27299 4.42051C3.44699 4.20651 3.76166 4.17251 3.97632 4.34518L6.96366 6.75318C7.33899 7.05051 7.86766 7.05051 8.24566 6.75051L11.203 4.34651C11.4177 4.17118 11.7323 4.20451 11.907 4.41918Z" fill="#121212"/>
</svg>
