<svg width="18" height="18" viewBox="0 0 18 18" fill="none" xmlns="http://www.w3.org/2000/svg">
<path fill-rule="evenodd" clip-rule="evenodd" d="M8.53185 0.666687C13.0068 0.666687 16.6469 4.30669 16.6469 8.78169C16.6469 10.893 15.8366 12.8186 14.5107 14.2638L17.1197 16.8673C17.3639 17.1114 17.3647 17.5064 17.1205 17.7506C16.9988 17.8739 16.838 17.9348 16.678 17.9348C16.5189 17.9348 16.3588 17.8739 16.2363 17.7523L13.5959 15.1192C12.2069 16.2316 10.4457 16.8975 8.53185 16.8975C4.05685 16.8975 0.416016 13.2567 0.416016 8.78169C0.416016 4.30669 4.05685 0.666687 8.53185 0.666687ZM8.53185 1.91669C4.74602 1.91669 1.66602 4.99585 1.66602 8.78169C1.66602 12.5675 4.74602 15.6475 8.53185 15.6475C12.3168 15.6475 15.3969 12.5675 15.3969 8.78169C15.3969 4.99585 12.3168 1.91669 8.53185 1.91669Z" fill="white"/>
</svg>
