<svg width="12" height="12" viewBox="0 0 12 12" fill="none" xmlns="http://www.w3.org/2000/svg">
<path d="M5.23346 0.815034C5.4293 0.363413 6.06976 0.363413 6.2656 0.815034L7.3183 3.24266C7.48128 3.61859 7.8358 3.87615 8.24373 3.91502L10.8778 4.16602C11.3679 4.21271 11.5658 4.82183 11.1968 5.14764L9.21325 6.899C8.90613 7.1702 8.77068 7.58693 8.85978 7.98691L9.43503 10.5697C9.54205 11.0501 9.02395 11.4266 8.60005 11.1764L6.32147 9.83108C5.96863 9.62281 5.53043 9.62281 5.17758 9.83108L2.89901 11.1764C2.47512 11.4266 1.95697 11.0501 2.06399 10.5697L2.63926 7.98691C2.72834 7.58693 2.59293 7.1702 2.28578 6.899L0.302272 5.14764C-0.0667265 4.82183 0.131187 4.21271 0.621222 4.16602L3.25533 3.91502C3.66323 3.87615 4.01774 3.61859 4.18075 3.24266L5.23346 0.815034Z" fill="#125252"/>
</svg>
