<svg width="14" height="14" viewBox="0 0 14 14" fill="none" xmlns="http://www.w3.org/2000/svg">
<path fill-rule="evenodd" clip-rule="evenodd" d="M9.70767 1.75C11.6368 1.75 13.2059 3.31917 13.2059 5.24883V9.43542C13.2059 11.3645 11.6368 12.9343 9.70767 12.9343H4.66534C2.73625 12.9343 1.1665 11.3645 1.1665 9.43542V5.24883C1.1665 3.31917 2.73625 1.75 4.66534 1.75H9.70767ZM9.70767 2.625H4.66534C3.21867 2.625 2.0415 3.80217 2.0415 5.24883V9.43542C2.0415 10.8821 3.21867 12.0593 4.66534 12.0593H9.70767C11.1543 12.0593 12.3309 10.8821 12.3309 9.43542V9.27208L10.4071 9.27243C9.30056 9.27243 8.3999 8.37235 8.39931 7.26635C8.39931 6.15918 9.29998 5.25852 10.4071 5.25793L12.3309 5.25758V5.24883C12.3309 3.80217 11.1543 2.625 9.70767 2.625ZM12.3309 6.13258L10.4071 6.13293C9.7824 6.13352 9.27431 6.6416 9.27431 7.26577C9.27431 7.88935 9.78298 8.39743 10.4071 8.39743L12.3309 8.39708V6.13258ZM10.6741 6.7921C10.9156 6.7921 11.1116 6.9881 11.1116 7.2296C11.1116 7.4711 10.9156 7.6671 10.6741 7.6671H10.4921C10.2506 7.6671 10.0546 7.4711 10.0546 7.2296C10.0546 6.9881 10.2506 6.7921 10.4921 6.7921H10.6741ZM7.39942 4.39723C7.64092 4.39723 7.83692 4.59323 7.83692 4.83473C7.83692 5.07623 7.64092 5.27223 7.39942 5.27223H4.25C4.0085 5.27223 3.8125 5.07623 3.8125 4.83473C3.8125 4.59323 4.0085 4.39723 4.25 4.39723H7.39942Z" fill="#125252"/>
</svg>
